<svg width="61" height="91" viewBox="0 0 61 91" fill="none" xmlns="http://www.w3.org/2000/svg">
<g clip-path="url(#clip0)">
<path d="M60.418 0H-0.000976562V90.628H60.418V0Z" fill="white"/>
<path d="M59.541 0.971924V89.6549H0.878052V0.971924H59.541Z" fill="#1A1818"/>
<path d="M56.1661 4.12402H3.8291V18.83H56.1661V4.12402Z" fill="white"/>
<path d="M56.173 22.0369H3.80603V76.0989H56.173V22.0369Z" fill="white"/>
<path d="M3.81702 86.46V79.282H14.329V80.962H8.04001V81.988H13.363V83.662H8.04001V84.7859H14.574V86.46H3.81702Z" fill="white"/>
<path d="M23.5 81.3729C23.4491 81.2462 23.3663 81.1348 23.2596 81.0496C23.1528 80.9644 23.0258 80.9084 22.891 80.8869C22.5352 80.7908 22.1674 80.7464 21.799 80.7549C20.872 80.7549 20.455 80.906 20.455 81.174C20.455 82.235 27.868 81.5739 27.868 84.1809C27.868 85.8419 25.377 86.6549 21.836 86.6549C18.436 86.6549 16.217 85.5479 16.127 84.2549H20.171C20.2371 84.3962 20.3345 84.5205 20.4558 84.6185C20.577 84.7166 20.719 84.7858 20.871 84.8209C21.2587 84.945 21.6639 85.0061 22.071 85.002C23.126 85.002 23.828 84.8149 23.828 84.4749C23.828 83.3869 16.409 84.1329 16.409 81.3969C16.409 79.8729 18.775 79.1069 22 79.1069C25.578 79.1069 27.207 80.122 27.516 81.377L23.5 81.3729Z" fill="white"/>
<path d="M34.198 82.396H35.861C37.161 82.396 37.868 82.206 37.868 81.711C37.868 81.216 37.154 80.962 36.168 80.962H34.199L34.198 82.396ZM34.198 83.96V86.46H29.975V79.282H36.062C40.354 79.282 41.771 79.938 41.771 81.333C41.771 82.163 41.112 82.852 39.606 83.094C40.966 83.367 41.789 83.537 41.789 84.985C41.789 85.918 41.736 86.243 42.235 86.243V86.461H37.951C37.7845 86.0643 37.7119 85.6344 37.739 85.205C37.739 84.263 37.453 83.96 35.484 83.96H34.198Z" fill="white"/>
<path d="M48.59 80.9619V82.1619H50.35C51.192 82.1619 51.804 81.946 51.804 81.535C51.804 80.973 50.971 80.9609 50.082 80.9609L48.59 80.9619ZM48.59 83.4619V84.785H50.434C51.48 84.785 52.266 84.663 52.266 84.127C52.266 83.5 51.284 83.4619 49.935 83.4619H48.59ZM44.37 86.4619V79.2839H50.531C53.431 79.2839 55.741 79.6739 55.741 81.0939C55.741 81.8339 54.879 82.373 54.059 82.653C55.454 82.853 56.201 83.5269 56.201 84.2969C56.201 85.8969 54.001 86.4619 50.65 86.4619H44.37Z" fill="white"/>
<path d="M21.6731 54.819L21.5511 39.109L30.1061 52.732L21.6731 54.819ZM41.7571 48.866C41.0884 49.1908 40.3881 49.4458 39.6671 49.627C34.2811 50.962 30.4551 48.034 28.9731 42.91C27.8841 39.149 28.5361 35.84 31.0851 33.804L24.8791 25.05L11.3011 28.419L8.55811 73.019L21.6391 69.781L21.5931 63.999L34.8931 60.692L38.0441 65.71L51.3441 62.41L41.7561 48.866" fill="#1A1818"/>
<path d="M32.2381 42.111C33.2591 45.623 35.3211 48.2819 39.0081 47.3619C39.4683 47.2484 39.9126 47.0785 40.3311 46.856L32.6441 36.0129C31.4901 37.5069 31.5491 39.7469 32.2381 42.1129" fill="#1A1818"/>
<path d="M35.2561 34.428C38.9561 33.51 41.0151 36.167 42.0291 39.684C42.9121 42.717 42.7641 45.55 40.3291 46.858L41.7511 48.871C45.4731 47.032 46.5651 43.261 45.2951 38.871C43.8081 33.763 39.9891 30.831 34.5951 32.171C33.3192 32.462 32.1201 33.0222 31.0781 33.814L32.6381 36.02C33.296 35.2021 34.22 34.6408 35.2491 34.434" fill="#1A1818"/>
<path d="M5.29199 15.652L6.65298 7.31104H8.00299L9.33099 15.652H8.25198L7.98401 13.802H6.58099L6.30399 15.652H5.29199ZM7.26999 8.91705H7.255L6.789 12.517H7.76599L7.26999 8.91705Z" fill="#1A1818"/>
<path d="M9.83997 7.30996H11.551C11.8481 7.29703 12.1391 7.39665 12.366 7.58895C12.5959 7.8102 12.7621 8.08929 12.847 8.39693C12.9764 8.81948 13.0556 9.25582 13.0829 9.69692C13.1243 10.2103 13.145 10.7893 13.145 11.4339V12.1909C13.145 12.4799 13.133 12.7819 13.111 13.0979C13.0866 13.4097 13.0449 13.7198 12.986 14.0269C12.9301 14.3099 12.8373 14.5842 12.71 14.8429C12.5961 15.0699 12.4331 15.2687 12.2329 15.4249C12.0237 15.5808 11.7677 15.6609 11.507 15.6519H9.83997V7.30996ZM10.866 14.37H11.361C11.431 14.3715 11.5005 14.3583 11.5651 14.3313C11.6297 14.3042 11.6879 14.2639 11.736 14.2129C11.852 14.0676 11.9303 13.8958 11.964 13.7129C12.026 13.4186 12.0631 13.1195 12.075 12.8189C12.095 12.4519 12.107 12.0089 12.107 11.4849C12.107 11.0999 12.1069 10.7329 12.0949 10.3849C12.092 10.0775 12.0666 9.77068 12.019 9.46694C11.988 9.24314 11.9147 9.0273 11.8029 8.83095C11.7629 8.75834 11.7037 8.69808 11.6317 8.65682C11.5598 8.61556 11.4779 8.59486 11.395 8.59694H10.8669L10.866 14.37Z" fill="#1A1818"/>
<path d="M17.2709 7.30994V13.2249C17.2719 13.5366 17.2434 13.8476 17.1859 14.1539C17.1372 14.441 17.043 14.7184 16.9069 14.9759C16.7853 15.2091 16.6106 15.4106 16.3969 15.5639C16.1647 15.7197 15.8894 15.7984 15.6099 15.7889C15.3564 15.8019 15.1043 15.7439 14.8819 15.6215C14.6595 15.4991 14.4756 15.317 14.3509 15.0959C14.05 14.5199 13.9081 13.874 13.9399 13.2249V7.30994H14.9659V13.1099C14.9421 13.4848 15.0008 13.8602 15.1379 14.2099C15.1743 14.3095 15.2415 14.395 15.3297 14.454C15.4179 14.5129 15.5226 14.5423 15.6286 14.5378C15.7346 14.5334 15.8364 14.4953 15.9193 14.4292C16.0023 14.3631 16.062 14.2723 16.0899 14.1699C16.2112 13.8289 16.2649 13.4675 16.2479 13.1059V7.30591L17.2709 7.30994Z" fill="#1A1818"/>
<path d="M18.114 15.652V7.31006H19.137V14.2661H20.672V15.651L18.114 15.652Z" fill="#1A1818"/>
<path d="M23.644 7.31006V8.69702H22.5049V15.652H21.482V8.69702H20.34V7.31006H23.644Z" fill="#1A1818"/>
<path d="M27.157 13.3749C27.1721 13.809 27.1198 14.2428 27.002 14.6609C26.9286 14.932 26.7914 15.1816 26.602 15.3889C26.4518 15.5473 26.2596 15.6597 26.0479 15.7129C25.8537 15.762 25.6543 15.7872 25.4539 15.7879C25.1801 15.802 24.9094 15.725 24.684 15.5689C24.4811 15.4166 24.3246 15.211 24.2319 14.9749C24.122 14.6969 24.0526 14.4046 24.0259 14.1069C23.9932 13.7633 23.9845 13.4178 23.9999 13.0729H25.025C25.025 13.2729 25.025 13.4609 25.037 13.6409C25.0435 13.7985 25.0676 13.9548 25.1089 14.1069C25.1356 14.2268 25.1952 14.337 25.2809 14.4249C25.3248 14.4653 25.3764 14.4963 25.4326 14.5162C25.4888 14.5362 25.5484 14.5445 25.6079 14.5409C25.6913 14.5423 25.7731 14.5181 25.8423 14.4716C25.9114 14.4251 25.9647 14.3586 25.9949 14.2809C26.0895 14.0647 26.1334 13.8297 26.123 13.5939C26.13 13.3687 26.0775 13.1455 25.9709 12.9469C25.8659 12.7567 25.7376 12.5804 25.589 12.4219C25.434 12.2559 25.2709 12.0919 25.0939 11.9219C24.9079 11.7477 24.7403 11.5546 24.5939 11.3459C24.4326 11.1076 24.3035 10.849 24.21 10.5769C24.1019 10.2332 24.0509 9.8741 24.059 9.5139C24.0576 9.20827 24.083 8.90311 24.1349 8.60192C24.1785 8.34059 24.2671 8.08882 24.3969 7.8579C24.5168 7.65024 24.6893 7.47779 24.8969 7.3579C25.1354 7.22664 25.4049 7.16239 25.6769 7.17192C25.8993 7.15992 26.1206 7.2096 26.3165 7.31548C26.5124 7.42136 26.6752 7.5793 26.787 7.7719C27.065 8.36626 27.174 9.0257 27.102 9.67791H26.102C26.102 9.52291 26.096 9.3719 26.085 9.2199C26.0752 9.08462 26.0521 8.95061 26.016 8.81987C25.9884 8.71483 25.9397 8.6165 25.873 8.53087C25.8429 8.4949 25.805 8.46632 25.7622 8.44725C25.7194 8.42819 25.6728 8.41915 25.6259 8.42089C25.5466 8.41947 25.4685 8.43966 25.3997 8.4793C25.331 8.51893 25.2744 8.57656 25.236 8.64592C25.1289 8.85009 25.0804 9.07991 25.0959 9.30992C25.089 9.54285 25.1413 9.7737 25.248 9.98088C25.3511 10.1673 25.4804 10.3381 25.632 10.4879C25.786 10.6419 25.9503 10.7982 26.1249 10.9569C26.3124 11.1214 26.4801 11.3069 26.6249 11.5099C26.791 11.7436 26.9205 12.0012 27.0089 12.2739C27.1188 12.6302 27.1689 13.0023 27.157 13.3749V13.3749Z" fill="#1A1818"/>
<path d="M31.037 15.7889C30.8581 15.8005 30.6788 15.774 30.511 15.7113C30.3431 15.6486 30.1904 15.5509 30.063 15.4249C29.8151 15.1504 29.6412 14.8172 29.558 14.4568C29.4486 14.0036 29.3879 13.54 29.377 13.0739C29.356 12.5599 29.35 12.0279 29.35 11.4819C29.35 10.9359 29.356 10.3918 29.377 9.88184C29.3874 9.4183 29.4481 8.95727 29.558 8.50684C29.6422 8.14773 29.816 7.8158 30.063 7.54187C30.3343 7.30732 30.6809 7.17822 31.0395 7.17822C31.3981 7.17822 31.7447 7.30732 32.016 7.54187C32.2624 7.81546 32.4346 8.14769 32.516 8.50684C32.627 8.95714 32.6887 9.41819 32.7 9.88184C32.718 10.3965 32.727 10.9299 32.727 11.4819C32.727 12.0339 32.718 12.5645 32.7 13.0739C32.6882 13.5401 32.6265 14.0037 32.516 14.4568C32.4356 14.8172 32.2633 15.1507 32.016 15.4249C31.8877 15.5512 31.7342 15.6489 31.5654 15.7116C31.3967 15.7743 31.2166 15.8007 31.037 15.7889ZM31.037 14.5419C31.1052 14.5439 31.1728 14.5284 31.2334 14.4969C31.294 14.4654 31.3454 14.4189 31.383 14.3619C31.4912 14.1972 31.5597 14.0095 31.583 13.8138C31.6372 13.4996 31.6673 13.1817 31.673 12.8629C31.684 12.4729 31.693 12.0119 31.693 11.4819C31.693 10.9519 31.684 10.4888 31.673 10.1008C31.6673 9.78133 31.6372 9.46274 31.583 9.14783C31.56 8.95206 31.4914 8.76443 31.383 8.59985C31.3442 8.54436 31.2925 8.49906 31.2325 8.46777C31.1724 8.43649 31.1057 8.4201 31.038 8.4201C30.9702 8.4201 30.9035 8.43649 30.8435 8.46777C30.7834 8.49906 30.7318 8.54436 30.693 8.59985C30.587 8.76569 30.5188 8.95273 30.493 9.14783C30.443 9.46323 30.414 9.7816 30.406 10.1008C30.392 10.4888 30.386 10.9509 30.386 11.4819C30.386 12.0129 30.392 12.4729 30.406 12.8629C30.414 13.1814 30.4431 13.4991 30.493 13.8138C30.519 14.0089 30.5873 14.1959 30.693 14.3619C30.7303 14.4186 30.7815 14.4649 30.8417 14.4964C30.9019 14.5279 30.9691 14.5435 31.037 14.5419Z" fill="#1A1818"/>
<path d="M33.55 15.652V7.31006H34.9351L36.235 13.0861H36.2491V7.31006H37.204V15.651H35.858L34.5201 9.55103H34.5081V15.651L33.55 15.652Z" fill="#1A1818"/>
<path d="M38.08 15.652V7.31006H39.102V14.2661H40.6329V15.651L38.08 15.652Z" fill="#1A1818"/>
<path d="M41.487 12.763L40.202 7.31006H41.319L42.054 10.834L42.837 7.31006H43.883L42.51 12.763V15.651H41.487V12.763Z" fill="#1A1818"/>
<path d="M45.771 8.56506C45.9486 8.38779 46.114 8.19871 46.266 7.99908C46.4344 7.77214 46.576 7.52652 46.688 7.26709H47.595V15.6531H46.571V9.20209C46.4526 9.37671 46.3234 9.54371 46.184 9.70209C46.047 9.85409 45.907 10.002 45.77 10.136L45.771 8.56506Z" fill="#1A1818"/>
<path d="M49.9521 15.758C49.7494 15.7682 49.5478 15.724 49.3679 15.6301C49.1881 15.5362 49.0366 15.396 48.929 15.2239C48.6595 14.6917 48.5405 14.0959 48.5851 13.501C48.5851 13.245 48.591 13.001 48.609 12.769C48.6213 12.552 48.6527 12.3364 48.7031 12.1249C48.7489 11.9422 48.8203 11.7668 48.915 11.6039C49.0053 11.4518 49.1304 11.3233 49.2801 11.2289V11.206C49.1486 11.1526 49.0351 11.0627 48.9531 10.947C48.8646 10.8228 48.7971 10.6849 48.7531 10.5389C48.6993 10.3674 48.6658 10.1903 48.653 10.011C48.635 9.81499 48.626 9.60498 48.626 9.38098C48.5854 8.79906 48.7003 8.21679 48.959 7.69397C49.0678 7.52956 49.2156 7.39466 49.3893 7.30133C49.5629 7.208 49.7569 7.15918 49.954 7.15918C50.1512 7.15918 50.3452 7.208 50.5189 7.30133C50.6925 7.39466 50.8403 7.52956 50.949 7.69397C51.2085 8.21657 51.3242 8.79888 51.2841 9.38098C51.2841 9.60498 51.2731 9.81499 51.2581 10.011C51.2431 10.1904 51.2078 10.3675 51.153 10.5389C51.1092 10.685 51.0416 10.8228 50.9531 10.947C50.871 11.0627 50.7575 11.1526 50.626 11.206V11.2289C50.775 11.3241 50.8999 11.4525 50.9911 11.6039C51.0851 11.7671 51.1565 11.9424 51.2031 12.1249C51.2541 12.3363 51.2856 12.5519 51.2971 12.769C51.3151 13 51.321 13.245 51.321 13.501C51.3659 14.0962 51.2462 14.6922 50.975 15.2239C50.8673 15.3958 50.7157 15.5358 50.5359 15.6297C50.3562 15.7236 50.1546 15.7678 49.9521 15.758V15.758ZM49.9521 11.902C49.8994 11.9019 49.8479 11.9173 49.804 11.9463C49.7601 11.9753 49.7257 12.0165 49.705 12.0649C49.6459 12.1919 49.6048 12.3266 49.583 12.465C49.5591 12.6263 49.5455 12.7889 49.5421 12.952C49.5421 13.121 49.5421 13.267 49.5421 13.395C49.5421 13.523 49.548 13.6419 49.557 13.7759C49.5652 13.9018 49.585 14.0267 49.6161 14.149C49.6368 14.2504 49.6783 14.3464 49.738 14.431C49.7628 14.4648 49.7954 14.4922 49.833 14.5108C49.8706 14.5294 49.9121 14.5387 49.954 14.538C49.9967 14.5389 50.0391 14.5298 50.0775 14.5112C50.1159 14.4926 50.1493 14.4651 50.175 14.431C50.2342 14.3461 50.2756 14.2502 50.2971 14.149C50.3289 14.0269 50.3487 13.9019 50.356 13.7759C50.365 13.6419 50.3711 13.517 50.3711 13.395C50.3711 13.273 50.3711 13.121 50.3711 12.952C50.3677 12.7889 50.354 12.6263 50.33 12.465C50.3102 12.326 50.2687 12.191 50.2071 12.0649C50.1859 12.0152 50.1503 11.9731 50.1048 11.944C50.0593 11.9149 50.006 11.9003 49.9521 11.902ZM49.9521 8.38397C49.9117 8.38383 49.8719 8.3943 49.8368 8.41431C49.8017 8.43431 49.7725 8.46316 49.752 8.49799C49.6974 8.58424 49.6591 8.67982 49.639 8.77997C49.6125 8.89681 49.5948 9.01545 49.5861 9.13495C49.5801 9.25962 49.5771 9.37366 49.5771 9.47699C49.5771 9.58032 49.5801 9.70062 49.5861 9.83795C49.5938 9.96134 49.6104 10.084 49.636 10.205C49.6529 10.3075 49.6907 10.4056 49.747 10.493C49.7676 10.5276 49.7969 10.5563 49.832 10.5761C49.8671 10.5959 49.9068 10.6062 49.9471 10.606C49.9883 10.6068 50.029 10.5967 50.0651 10.5769C50.1013 10.5571 50.1316 10.5282 50.153 10.493C50.2088 10.4051 50.2472 10.3073 50.2661 10.205C50.291 10.084 50.3064 9.9613 50.312 9.83795C50.321 9.70895 50.3231 9.58799 50.3231 9.47699C50.3231 9.36599 50.323 9.25895 50.312 9.13495C50.3053 9.01548 50.289 8.89678 50.2631 8.77997C50.2414 8.67983 50.2021 8.58437 50.1471 8.49799C50.1271 8.46376 50.0986 8.43517 50.0645 8.41504C50.0304 8.39491 49.9917 8.38391 49.9521 8.383V8.38397Z" fill="#1A1818"/>
<path d="M52.783 8.92993H53.535V11.2059H54.683V12.486H53.535V14.7599H52.783V12.486H51.629V11.2059H52.783V8.92993Z" fill="#1A1818"/>
</g>
<defs>
<clipPath id="clip0">
<rect width="60.42" height="90.628" fill="white"/>
</clipPath>
</defs>
</svg>
