<svg width="61" height="91" viewBox="0 0 61 91" fill="none" xmlns="http://www.w3.org/2000/svg">
<g clip-path="url(#clip0)">
<path d="M60.8369 0H0.418945V90.628H60.8369V0Z" fill="white"/>
<path d="M59.9599 0.971924V89.6549H1.29688V0.971924H59.9599Z" fill="#1A1818"/>
<path d="M56.5848 4.12402H4.24878V18.83H56.5848V4.12402Z" fill="white"/>
<path d="M56.5909 22.0371H4.22485V76.0991H56.5909V22.0371Z" fill="white"/>
<path d="M4.23486 86.46V79.282H14.7479V80.962H8.45786V81.988H13.7809V83.662H8.45886V84.7859H14.9929V86.46H4.23486Z" fill="white"/>
<path d="M23.9258 81.3729C23.874 81.2465 23.7906 81.1354 23.6837 81.0504C23.5767 80.9653 23.4497 80.909 23.3148 80.8869C22.9591 80.7908 22.5913 80.7463 22.2229 80.7549C21.2939 80.7549 20.8789 80.906 20.8789 81.174C20.8789 82.235 28.2929 81.5739 28.2929 84.1809C28.2929 85.8419 25.7989 86.6549 22.2589 86.6549C18.8589 86.6549 16.6379 85.5479 16.5479 84.2549H20.5939C20.6598 84.3963 20.7572 84.5207 20.8785 84.6188C20.9998 84.7169 21.1418 84.786 21.2939 84.8209C21.6817 84.9448 22.0868 85.0059 22.4939 85.002C23.5489 85.002 24.2519 84.8149 24.2519 84.4749C24.2519 83.3869 16.8329 84.1329 16.8329 81.3969C16.8329 79.8729 19.1969 79.1069 22.4219 79.1069C25.9979 79.1069 27.6299 80.122 27.9379 81.377L23.9258 81.3729Z" fill="white"/>
<path d="M34.6158 82.396H36.2768C37.5848 82.396 38.2868 82.206 38.2868 81.711C38.2868 81.216 37.5708 80.962 36.5868 80.962H34.6158V82.396ZM34.6158 83.96V86.46H30.3928V79.282H36.4808C40.7708 79.282 42.1888 79.938 42.1888 81.333C42.1888 82.163 41.5298 82.852 40.0238 83.094C41.3838 83.367 42.2088 83.537 42.2088 84.985C42.2088 85.918 42.1538 86.243 42.6548 86.243V86.461H38.3718C38.2063 86.064 38.1344 85.6343 38.1618 85.205C38.1618 84.263 37.8738 83.96 35.9058 83.96H34.6158Z" fill="white"/>
<path d="M49.0069 80.9619V82.1619H50.7669C51.6089 82.1619 52.2189 81.946 52.2189 81.535C52.2189 80.973 51.3859 80.9609 50.4989 80.9609L49.0069 80.9619ZM49.0069 83.4619V84.785H50.8489C51.8959 84.785 52.6819 84.663 52.6819 84.127C52.6819 83.5 51.6999 83.4619 50.3499 83.4619H49.0069ZM44.7849 86.4619V79.2839H50.9459C53.8459 79.2839 56.1569 79.6739 56.1569 81.0939C56.1569 81.8339 55.2939 82.373 54.4729 82.653C55.8679 82.853 56.6169 83.5269 56.6169 84.2969C56.6169 85.8969 54.4169 86.4619 51.0659 86.4619H44.7849Z" fill="white"/>
<path d="M8.13892 34.5329L39.8299 25.0649L43.0079 35.1029L27.1319 39.8409L28.4319 43.9489L43.0999 39.5709L46.2699 49.614L31.6079 53.9829L32.9769 58.3089L49.3719 53.4089L52.5509 63.4429L20.3439 73.0639L8.13892 34.5329Z" fill="#1A1818"/>
<path d="M5.7019 15.6411V7.31201H10.1949V8.59406H7.42491V10.6461H9.97791V11.9301H7.42491V14.361H10.2839V15.643L5.7019 15.6411Z" fill="#1A1818"/>
<path d="M10.74 7.31201H12.533L13.806 13.368H13.83L15.266 7.31201H16.966L14.787 15.6411H12.771L10.74 7.31201Z" fill="#1A1818"/>
<path d="M17.7429 15.6411V7.31201H22.2339V8.59406H19.4629V10.6461H22.0179V11.9301H19.4629V14.361H22.3239V15.643L17.7429 15.6411Z" fill="#1A1818"/>
<path d="M25.1289 15.6409H23.4099V7.3119H26.5869C26.8478 7.29874 27.1085 7.34137 27.3516 7.4369C27.5948 7.53243 27.8148 7.67868 27.9969 7.86592C28.3717 8.32144 28.5571 8.90352 28.5149 9.4919C28.5294 9.96555 28.4095 10.4337 28.1689 10.8419C28.0343 11.0361 27.859 11.1986 27.6552 11.3183C27.4514 11.438 27.2241 11.5119 26.9889 11.5349V11.5559L27.3759 11.6259C27.5534 11.6607 27.7219 11.7315 27.8709 11.8339C28.0492 11.9573 28.1959 12.1211 28.2989 12.3119C28.4348 12.5856 28.4978 12.8897 28.4819 13.1949C28.4819 13.3229 28.4819 13.5089 28.4879 13.7479C28.4939 13.9869 28.4999 14.2309 28.5149 14.4859C28.5299 14.7409 28.5529 14.9729 28.5789 15.1859C28.5921 15.34 28.6257 15.4917 28.6789 15.6369H26.9889C26.8733 15.386 26.8126 15.1132 26.8109 14.8369C26.8109 14.5609 26.8109 14.2869 26.8109 14.0179C26.8109 13.7729 26.8109 13.5379 26.8049 13.3179C26.8058 13.1183 26.767 12.9205 26.6909 12.7359C26.6161 12.5667 26.4883 12.4264 26.3269 12.336C26.0945 12.2228 25.837 12.1709 25.5789 12.1849H25.1329L25.1289 15.6409ZM25.1289 10.9109H25.8929C26.0424 10.9159 26.1899 10.8755 26.3159 10.7949C26.4291 10.7207 26.5222 10.6197 26.5869 10.5009C26.6584 10.3772 26.7075 10.2417 26.7319 10.1009C26.7568 9.96363 26.7695 9.82446 26.7699 9.68495C26.7998 9.3832 26.7168 9.08105 26.5369 8.83693C26.4529 8.75294 26.3521 8.68752 26.2412 8.64497C26.1302 8.60242 26.0116 8.58367 25.8929 8.58992H25.1289V10.9109Z" fill="#1A1818"/>
<path d="M31.1269 12.756L28.9709 7.31201H30.8559L32.0879 10.83L33.3989 7.31201H35.1529L32.8529 12.756V15.6411H31.1269V12.756Z" fill="#1A1818"/>
<path d="M38.7088 15.7829C38.138 15.8154 37.5694 15.6894 37.0658 15.4189C36.6914 15.1904 36.3961 14.8525 36.2198 14.4509C36.0405 14.0125 35.939 13.5462 35.9198 13.0729C35.8898 12.5579 35.8728 12.0269 35.8728 11.4819C35.8728 10.9369 35.8898 10.3929 35.9198 9.8819C35.9383 9.41113 36.0399 8.94734 36.2198 8.5119C36.3962 8.11135 36.6915 7.77479 37.0658 7.54791C37.5797 7.30719 38.1403 7.18237 38.7078 7.18237C39.2753 7.18237 39.8359 7.30719 40.3498 7.54791C40.7245 7.77394 41.0198 8.11078 41.1948 8.5119C41.3753 8.94741 41.4789 9.41096 41.5008 9.8819C41.5308 10.3979 41.5468 10.9309 41.5468 11.4819C41.5468 12.0329 41.5318 12.5579 41.5008 13.0729C41.4782 13.5464 41.3747 14.0124 41.1948 14.4509C41.0199 14.8531 40.7247 15.1912 40.3498 15.4189C39.847 15.6895 39.2789 15.8155 38.7088 15.7829V15.7829ZM38.7088 14.5359C38.9177 14.5468 39.1237 14.4838 39.2908 14.3579C39.45 14.2102 39.5643 14.0206 39.6208 13.8109C39.7064 13.5003 39.7561 13.1808 39.7688 12.8589C39.7928 12.4689 39.8058 12.0109 39.8058 11.4809C39.8058 10.9509 39.7938 10.4899 39.7688 10.1019C39.7562 9.77997 39.7065 9.46051 39.6208 9.1499C39.5646 8.94008 39.4502 8.75045 39.2908 8.60291C39.1191 8.48584 38.9161 8.42322 38.7083 8.42322C38.5005 8.42322 38.2975 8.48584 38.1258 8.60291C37.9637 8.74805 37.849 8.93866 37.7968 9.1499C37.7092 9.46012 37.6592 9.77977 37.6478 10.1019C37.6251 10.4899 37.6135 10.9496 37.6128 11.4809C37.6128 12.0109 37.6248 12.4689 37.6478 12.8589C37.6593 13.181 37.7093 13.5007 37.7968 13.8109C37.8493 14.022 37.9639 14.2126 38.1258 14.3579C38.2937 14.4824 38.5001 14.544 38.7088 14.5319V14.5359Z" fill="#1A1818"/>
<path d="M42.9248 15.6411V7.31201H45.2538L47.4388 13.078H47.4628V7.31201H49.0738V15.6411H46.8028L44.5568 9.55005H44.5328V15.6411H42.9248Z" fill="#1A1818"/>
<path d="M50.5168 15.6411V7.31201H55.0168V8.59406H52.2418V10.6461H54.7918V11.9301H52.2418V14.361H55.0998V15.643L50.5168 15.6411Z" fill="#1A1818"/>
</g>
<defs>
<clipPath id="clip0">
<rect width="60.418" height="90.628" fill="white" transform="translate(0.419922)"/>
</clipPath>
</defs>
</svg>
