<svg width="62" height="91" viewBox="0 0 62 91" fill="none" xmlns="http://www.w3.org/2000/svg">
<g clip-path="url(#clip0)">
<path d="M61.2569 0H0.838867V90.627H61.2569V0Z" fill="white"/>
<path d="M60.3788 0.9729V89.6579H1.7168V0.9729H60.3788Z" fill="#1A1818"/>
<path d="M57.0037 4.125H4.66772V18.831H57.0037V4.125Z" fill="white"/>
<path d="M57.0108 22.0369H4.64478V76.0979H57.0108V22.0369Z" fill="white"/>
<path d="M4.65479 86.46V79.282H15.1678V80.962H8.88078V81.988H14.2038V83.662H8.88078V84.786H15.4148V86.46H4.65479Z" fill="white"/>
<path d="M24.3447 81.3719C24.2926 81.2459 24.2091 81.1353 24.1022 81.0505C23.9952 80.9658 23.8684 80.9098 23.7337 80.8879C23.3789 80.7904 23.0116 80.7453 22.6437 80.754C21.7137 80.754 21.2977 80.906 21.2977 81.174C21.2977 82.235 28.7117 81.568 28.7117 84.179C28.7117 85.842 26.2197 86.653 22.6787 86.653C19.2787 86.653 17.0597 85.5479 16.9697 84.2529H21.0137C21.0799 84.394 21.1773 84.5183 21.2986 84.6161C21.4199 84.714 21.5618 84.783 21.7137 84.8179C22.1016 84.9417 22.5066 85.0028 22.9137 84.999C23.9707 84.999 24.6717 84.8119 24.6717 84.4739C24.6717 83.3849 17.2527 84.1309 17.2527 81.3959C17.2527 79.8699 19.6167 79.106 22.8417 79.106C26.4197 79.106 28.0497 80.12 28.3587 81.374L24.3447 81.3719Z" fill="white"/>
<path d="M35.0377 82.395H36.6987C38.0047 82.395 38.7067 82.205 38.7067 81.711C38.7067 81.217 37.9907 80.962 37.0067 80.962H35.0377V82.395ZM35.0377 83.96V86.46H30.8127V79.282H36.9027C41.1927 79.282 42.6107 79.94 42.6107 81.334C42.6107 82.164 41.9497 82.853 40.4457 83.094C41.8037 83.368 42.6287 83.537 42.6287 84.985C42.6287 85.92 42.5737 86.244 43.0747 86.244V86.46H38.7937C38.6262 86.0639 38.5536 85.6342 38.5817 85.205C38.5817 84.263 38.2957 83.96 36.3267 83.96H35.0377Z" fill="white"/>
<path d="M49.4258 80.963V82.1629H51.1858C52.0278 82.1629 52.6378 81.9449 52.6378 81.5359C52.6378 80.9739 51.8068 80.9619 50.9178 80.9619L49.4258 80.963ZM49.4258 83.463V84.7879H51.2698C52.3168 84.7879 53.1008 84.6659 53.1008 84.1299C53.1008 83.5029 52.1208 83.463 50.7698 83.463H49.4258ZM45.2058 86.463V79.2849H51.3658C54.2658 79.2849 56.5768 79.6749 56.5768 81.0969C56.5768 81.8369 55.7148 82.3759 54.8948 82.6539C56.2898 82.8539 57.0368 83.5279 57.0368 84.2979C57.0368 85.8979 54.8368 86.463 51.4878 86.463H45.2058Z" fill="white"/>
<path d="M34.1467 62.813H31.8917V64.054H34.1467V66.2419H35.4267V64.054H37.6877V62.813H35.4267V60.619H34.1467V62.813ZM30.5557 62.257C30.5557 57.895 28.2187 55.313 24.3407 55.313C19.1007 55.313 17.8097 58.894 17.8097 62.257C17.8097 66.365 19.8707 69.201 24.1847 69.201C28.4987 69.201 30.5557 66.365 30.5557 62.257ZM8.61572 34.533L40.3287 25.063L43.5047 35.107L27.6197 39.847L28.9197 43.953L43.5977 39.576L46.7687 49.621L32.0997 53.995L33.4697 58.323L49.8787 53.423L53.0607 63.459L20.8287 73.085L8.61572 34.533V34.533ZM9.82472 59.933C11.255 59.5781 12.5964 58.9312 13.7647 58.033V68.533H16.7397V55.3669H13.8397C12.6644 56.3267 11.2928 57.017 9.82172 57.389V59.938" fill="#1A1818"/>
<path d="M20.5478 62.1339C20.5708 57.7339 22.3158 56.7079 24.3158 56.7139C26.5518 56.7249 27.8238 58.3959 27.8088 62.2569C27.7948 64.6659 27.1448 67.6189 24.2798 67.6019C21.4728 67.5909 20.5318 65.3489 20.5478 62.1329" fill="#1A1818"/>
<path d="M6.14282 15.654V7.31104H9.41182V8.59601H7.39182V10.654H9.24883V11.937H7.39182V14.376H9.47282V15.656L6.14282 15.654Z" fill="#1A1818"/>
<path d="M9.81079 7.30908H11.1108L12.0408 13.3761H12.0578L13.1018 7.30908H14.3398L12.7508 15.6541H11.2828L9.81079 7.30908Z" fill="#1A1818"/>
<path d="M14.8977 15.654V7.31104H18.1667V8.59601H16.1497V10.654H18.0067V11.937H16.1497V14.376H18.2327V15.656L14.8977 15.654Z" fill="#1A1818"/>
<path d="M20.2779 15.654H19.0249V7.31106H21.3389C21.5431 7.30667 21.7448 7.35564 21.9243 7.45315C22.1037 7.55067 22.2545 7.69333 22.3619 7.86703C22.6469 8.36053 22.7795 8.92736 22.7429 9.49606C22.7554 9.95934 22.6688 10.42 22.4889 10.8471C22.4133 11.0247 22.2956 11.1813 22.1459 11.3032C21.9963 11.4252 21.8192 11.5089 21.6299 11.547V11.568C21.6949 11.586 21.7899 11.607 21.9099 11.64C22.047 11.6766 22.1724 11.748 22.2739 11.8471C22.4104 11.9828 22.5158 12.1466 22.5829 12.3271C22.6828 12.6103 22.7276 12.91 22.7149 13.21C22.7149 13.341 22.7149 13.527 22.7209 13.766C22.7269 14.005 22.7289 14.2521 22.7419 14.5061C22.7549 14.7601 22.7659 14.995 22.7859 15.206C22.7949 15.3576 22.8183 15.508 22.8559 15.6551H21.6289C21.5454 15.3965 21.5019 15.1268 21.4999 14.8551C21.4999 14.5781 21.4999 14.305 21.4999 14.034C21.4999 13.787 21.4999 13.5511 21.4999 13.3341C21.5009 13.1362 21.4736 12.9392 21.4189 12.7491C21.3722 12.5922 21.2795 12.4528 21.1529 12.349C20.9941 12.2382 20.8021 12.1849 20.6089 12.198H20.2859L20.2779 15.654ZM20.2779 10.9181H20.8339C20.9477 10.9208 21.0582 10.8792 21.1419 10.802C21.2298 10.718 21.2981 10.6155 21.3419 10.502C21.3944 10.3739 21.4297 10.2394 21.4469 10.102C21.4645 9.96371 21.4735 9.82445 21.4739 9.68502C21.4987 9.39153 21.4394 9.09703 21.3029 8.83603C21.253 8.75803 21.1838 8.69431 21.1019 8.65103C21.0201 8.60774 20.9284 8.58635 20.8359 8.58902H20.2799L20.2779 10.9181Z" fill="#1A1818"/>
<path d="M24.6408 12.7651L23.0708 7.30908H24.4408L25.3348 10.8331L26.2908 7.30908H27.5678L25.8918 12.7651V15.6541H24.6408V12.7651Z" fill="#1A1818"/>
<path d="M30.1548 15.791C29.7264 15.8189 29.3026 15.6894 28.9628 15.427C28.669 15.169 28.455 14.8325 28.3458 14.457C28.2127 14.0081 28.1374 13.544 28.1218 13.076C28.1018 12.56 28.0898 12.027 28.0898 11.476C28.0898 10.925 28.1018 10.386 28.1218 9.87C28.1374 9.40397 28.2127 8.94186 28.3458 8.495C28.4569 8.12183 28.6708 7.78747 28.9628 7.53003C29.3161 7.29382 29.7314 7.16772 30.1563 7.16772C30.5813 7.16772 30.9966 7.29382 31.3498 7.53003C31.641 7.78772 31.8538 8.12209 31.9638 8.495C32.0992 8.94136 32.1745 9.40375 32.1878 9.87C32.2108 10.386 32.2198 10.922 32.2198 11.476C32.2198 12.03 32.2108 12.555 32.1878 13.076C32.1745 13.5442 32.0992 14.0086 31.9638 14.457C31.8557 14.8322 31.6427 15.1687 31.3498 15.427C31.009 15.6896 30.5842 15.819 30.1548 15.791V15.791ZM30.1548 14.544C30.2344 14.5477 30.3139 14.5336 30.3874 14.5028C30.4609 14.472 30.5266 14.4253 30.5798 14.366C30.703 14.2042 30.7856 14.0153 30.8208 13.815C30.8842 13.5011 30.92 13.1822 30.9278 12.862C30.9445 12.474 30.9532 12.0137 30.9538 11.481C30.9545 10.9484 30.9458 10.4887 30.9278 10.102C30.92 9.78115 30.8842 9.46165 30.8208 9.14703C30.7861 8.94785 30.7034 8.76011 30.5798 8.60004C30.5253 8.54242 30.4595 8.49651 30.3866 8.46515C30.3137 8.43379 30.2352 8.4176 30.1558 8.4176C30.0765 8.4176 29.998 8.43379 29.9251 8.46515C29.8522 8.49651 29.7864 8.54242 29.7318 8.60004C29.6082 8.75972 29.5264 8.94773 29.4938 9.14703C29.4293 9.46153 29.3925 9.78105 29.3838 10.102C29.3672 10.492 29.3592 10.9517 29.3598 11.481C29.3605 12.0104 29.3685 12.4707 29.3838 12.862C29.3925 13.1823 29.4293 13.5012 29.4938 13.815C29.5269 14.0154 29.6086 14.2046 29.7318 14.366C29.785 14.4248 29.8505 14.4713 29.9236 14.502C29.9967 14.5328 30.0756 14.5471 30.1548 14.544V14.544Z" fill="#1A1818"/>
<path d="M33.2258 15.654V7.31104H34.9168L36.5088 13.089H36.5258V7.31104H37.6948V15.654H36.0428L34.4108 9.55402H34.3928V15.654H33.2258Z" fill="#1A1818"/>
<path d="M38.7498 15.654V7.31104H42.0168V8.59601H40.0028V10.654H41.8597V11.937H40.0028V14.376H42.0817V15.656L38.7498 15.654Z" fill="#1A1818"/>
<path d="M44.6229 8.63007C44.8366 8.45909 45.0372 8.2722 45.2229 8.07104C45.4259 7.8515 45.6 7.60682 45.7409 7.34302H46.8479V15.6511H45.5969V9.26001C45.4524 9.43773 45.2953 9.60483 45.1269 9.76001C44.9579 9.90901 44.7889 10.054 44.6199 10.188L44.6229 8.63007Z" fill="#1A1818"/>
<path d="M49.7397 7.23695C50.0421 7.22371 50.3419 7.29835 50.6027 7.45192C50.8469 7.62662 51.0263 7.87739 51.1127 8.16493C51.2479 8.59031 51.3282 9.03122 51.3517 9.47694C51.3917 10.0139 51.4157 10.6769 51.4157 11.4769C51.4157 12.1283 51.4011 12.7176 51.3717 13.2449C51.3557 13.7021 51.2862 14.1559 51.1647 14.5969C51.0766 14.9255 50.9002 15.2236 50.6547 15.4589C50.39 15.6566 50.0685 15.7633 49.7382 15.7633C49.4079 15.7633 49.0864 15.6566 48.8217 15.4589C48.5773 15.2235 48.4026 14.9252 48.3167 14.5969C48.1926 14.1563 48.1214 13.7024 48.1047 13.2449C48.0787 12.7179 48.0637 12.1289 48.0637 11.4769C48.0637 10.6836 48.0844 10.0169 48.1257 9.47694C48.1475 9.03086 48.2286 8.58965 48.3667 8.16493C48.4522 7.87771 48.6305 7.62693 48.8737 7.45192C49.135 7.29686 49.4362 7.22213 49.7397 7.23695V7.23695ZM49.7397 8.45192C49.6858 8.44829 49.6318 8.45698 49.5818 8.47725C49.5317 8.49752 49.4869 8.52883 49.4507 8.56892C49.3644 8.70363 49.3126 8.85747 49.2997 9.01692C49.2603 9.32301 49.2407 9.63135 49.2407 9.93996C49.2407 10.34 49.2347 10.8569 49.2347 11.4989C49.2347 12.1259 49.2347 12.6379 49.2467 13.0349C49.2467 13.3458 49.2694 13.6563 49.3147 13.9639C49.3274 14.1265 49.3792 14.2837 49.4657 14.422C49.4982 14.463 49.54 14.4958 49.5876 14.5175C49.6353 14.5393 49.6874 14.5494 49.7397 14.547C49.7918 14.5488 49.8436 14.5384 49.891 14.5167C49.9384 14.495 49.9801 14.4626 50.0127 14.422C50.0998 14.2837 50.1526 14.1267 50.1667 13.9639C50.2108 13.6562 50.2338 13.3458 50.2357 13.0349C50.2417 12.6349 50.2477 12.1259 50.2477 11.4989C50.2477 10.8559 50.2477 10.336 50.2387 9.93996C50.2403 9.6313 50.2206 9.32286 50.1797 9.01692C50.1691 8.85656 50.1159 8.70193 50.0257 8.56892C49.9897 8.52941 49.9454 8.49846 49.8959 8.47823C49.8464 8.45799 49.7931 8.44897 49.7397 8.45192V8.45192Z" fill="#1A1818"/>
<path d="M53.1988 8.92896H54.1188V11.21H55.5188V12.492H54.1188V14.768H53.1988V12.492H51.7878V11.21H53.1988V8.92896Z" fill="#1A1818"/>
</g>
<defs>
<clipPath id="clip0">
<rect width="60.418" height="90.627" fill="white" transform="translate(0.837891)"/>
</clipPath>
</defs>
</svg>
