<svg width="61" height="91" viewBox="0 0 61 91" fill="none" xmlns="http://www.w3.org/2000/svg">
<g clip-path="url(#clip0)">
<path d="M60.6758 0H0.257812V90.628H60.6748V0H60.6758Z" fill="white"/>
<path d="M59.7977 0.971924V89.6559H1.13574V0.971924H59.7977" fill="#1A1818"/>
<path d="M56.4236 4.12402H4.08765V18.831H56.4236V4.12402Z" fill="white"/>
<path d="M56.4297 22.0369H4.06372V76.0989H56.4297V22.0369Z" fill="white"/>
<path d="M4.07373 86.4619V79.2839H14.5867V80.9639H8.29674V81.9899H13.6197V83.6639H8.29674V84.7879H14.8307V86.4619H4.07373Z" fill="white"/>
<path d="M23.7637 81.3749C23.7123 81.2481 23.6291 81.1367 23.522 81.0516C23.415 80.9664 23.2877 80.9104 23.1527 80.8889C22.7976 80.7928 22.4305 80.7483 22.0627 80.7569C21.1337 80.7569 20.7187 80.9079 20.7187 81.1759C20.7187 82.2369 28.1317 81.5759 28.1317 84.1829C28.1317 85.8439 25.6397 86.6569 22.0977 86.6569C18.6977 86.6569 16.4787 85.5499 16.3887 84.2569H20.4327C20.4991 84.3979 20.5965 84.5221 20.7178 84.6201C20.839 84.7181 20.9808 84.7875 21.1327 84.8229C21.5205 84.9467 21.9256 85.0079 22.3327 85.0039C23.3897 85.0039 24.0907 84.8169 24.0907 84.4769C24.0907 83.3889 16.6707 84.1349 16.6707 81.3989C16.6707 79.8749 19.0367 79.1089 22.2597 79.1089C25.8377 79.1089 27.4677 80.1239 27.7767 81.3789L23.7637 81.3749Z" fill="white"/>
<path d="M34.4557 82.3979H36.1167C37.4227 82.3979 38.1247 82.208 38.1247 81.713C38.1247 81.218 37.4107 80.9639 36.4247 80.9639H34.4557V82.3979ZM34.4557 83.962V86.462H30.2327V79.2839H36.3207C40.6107 79.2839 42.0287 79.94 42.0287 81.335C42.0287 82.165 41.3677 82.8539 39.8637 83.0959C41.2217 83.3689 42.0467 83.5389 42.0467 84.9869C42.0467 85.9199 41.9917 86.2449 42.4927 86.2449V86.463H38.2117C38.0452 86.0662 37.9726 85.6364 37.9997 85.207C37.9997 84.265 37.7137 83.962 35.7447 83.962H34.4557Z" fill="white"/>
<path d="M48.8448 80.9639V82.1639H50.6057C51.4457 82.1639 52.0578 81.9479 52.0578 81.5369C52.0578 80.9749 51.2248 80.9629 50.3378 80.9629L48.8448 80.9639ZM48.8448 83.4639V84.7869H50.6888C51.7358 84.7869 52.5197 84.6649 52.5197 84.1289C52.5197 83.5019 51.5398 83.4639 50.1888 83.4639H48.8448ZM44.6248 86.4639V79.2859H50.7858C53.6858 79.2859 55.9967 79.6759 55.9967 81.0959C55.9967 81.8359 55.1337 82.3749 54.3127 82.6549C55.7077 82.8549 56.4548 83.5289 56.4548 84.2989C56.4548 85.8989 54.2547 86.4639 50.9057 86.4639H44.6248Z" fill="white"/>
<path d="M5.96167 35.424L22.0207 31.097L31.1797 52.664L31.2567 52.637L28.4927 29.363L44.5517 25.041L54.5707 62.703L44.7847 65.326L37.6187 38.403L37.5417 38.433L40.5757 66.4561L29.9837 69.316L18.6927 43.5161L18.6127 43.537L25.7647 70.46L15.9837 73.0891L5.96167 35.424Z" fill="#1A1818"/>
<path d="M5.53979 15.6268V7.29883H7.8998L8.9998 12.9609H9.01981L10.1858 7.29883H12.4738V15.6268H11.0428V9.20184H11.0228L9.67081 15.6268H8.2708L6.9848 9.20184H6.9668V15.6268H5.53979Z" fill="#1A1818"/>
<path d="M13.1418 15.6268L15.0858 7.29883H17.0238L18.9298 15.6268H17.3828L16.9948 13.7798H14.9888L14.5888 15.6268H13.1418ZM15.9738 8.90186H15.9508L15.2808 12.5018H16.6808L15.9738 8.90186Z" fill="#1A1818"/>
<path d="M23.2197 7.29785V8.68286H21.5857V15.6268H20.1147V8.68384H18.4807V7.29883L23.2197 7.29785Z" fill="#1A1818"/>
<path d="M28.6517 7.29791V13.1979C28.6515 13.5126 28.6105 13.8259 28.5297 14.1299C28.4496 14.4256 28.3139 14.7032 28.1297 14.9479C27.9335 15.1984 27.6819 15.4 27.3947 15.5369C27.0396 15.695 26.6533 15.7709 26.2647 15.7589C25.9322 15.7852 25.5979 15.7369 25.2864 15.6173C24.975 15.4977 24.6942 15.31 24.4647 15.0679C24.0482 14.5366 23.8389 13.8721 23.8757 13.1979V7.29791H25.3447V13.0879C25.3129 13.4713 25.3995 13.8553 25.5927 14.1879C25.6675 14.292 25.7665 14.3763 25.8811 14.4336C25.9958 14.4909 26.1226 14.5195 26.2507 14.5169C26.3912 14.5267 26.5316 14.4975 26.6565 14.4326C26.7814 14.3676 26.886 14.2695 26.9587 14.1489C27.1292 13.8217 27.2077 13.4543 27.1857 13.0859V7.2959L28.6517 7.29791Z" fill="#1A1818"/>
<path d="M31.2879 15.6267H29.8169V7.2987H32.5309C32.7605 7.29087 32.9887 7.33713 33.1972 7.43371C33.4056 7.53029 33.5884 7.67452 33.7309 7.85473C34.0583 8.32996 34.2151 8.90199 34.1759 9.47772C34.1895 9.94565 34.0864 10.4096 33.8759 10.8278C33.7741 11.0127 33.6308 11.1714 33.4573 11.2917C33.2838 11.4119 33.0848 11.4904 32.8759 11.5207V11.5447C32.9539 11.5587 33.0629 11.5828 33.2079 11.6118C33.3624 11.6489 33.5067 11.7203 33.6299 11.8207C33.7866 11.9505 33.9112 12.1148 33.9939 12.3007C34.1124 12.5783 34.1661 12.8793 34.1509 13.1807C34.1509 13.3137 34.1509 13.4977 34.1569 13.7347C34.1629 13.9717 34.1679 14.2207 34.1809 14.4727C34.1939 14.7247 34.2099 14.9617 34.2339 15.1727C34.2435 15.326 34.2706 15.4777 34.3149 15.6248H32.8759C32.7776 15.3694 32.7261 15.0983 32.7239 14.8247C32.7239 14.5477 32.7239 14.2737 32.7239 14.0067C32.7239 13.7597 32.7239 13.5238 32.7239 13.3068C32.7247 13.1074 32.6909 12.9095 32.6239 12.7217C32.5644 12.559 32.4552 12.4191 32.3119 12.3217C32.1193 12.2102 31.8981 12.1577 31.6759 12.1707H31.2939L31.2879 15.6267ZM31.2879 10.8977H31.9409C32.0707 10.902 32.1981 10.8618 32.3019 10.7837C32.3996 10.7018 32.4781 10.5993 32.5319 10.4837C32.5957 10.3582 32.6382 10.2231 32.6579 10.0837C32.679 9.94606 32.69 9.80701 32.6909 9.66772C32.7178 9.37085 32.6477 9.0733 32.4909 8.81976C32.4246 8.73878 32.3405 8.67427 32.245 8.63141C32.1496 8.58854 32.0455 8.56848 31.9409 8.57275H31.2879V10.8977Z" fill="#1A1818"/>
<path d="M35.2578 15.6268V7.29883H39.0918V8.57886H36.7288V10.6339H38.9078V11.9128H36.7288V14.3439H39.1688V15.6268H35.2578Z" fill="#1A1818"/>
<path d="M42.1508 8.54895C42.4001 8.37667 42.6376 8.18791 42.8618 7.98395C43.0942 7.76841 43.296 7.52214 43.4617 7.25195H44.7617V15.6249H43.2908V9.18292C43.1202 9.365 42.936 9.53383 42.7397 9.68793C42.5447 9.83693 42.3468 9.9819 42.1458 10.1189L42.1508 8.54895Z" fill="#1A1818"/>
<path d="M49.9437 8.84882L48.2877 15.6248H46.7607L48.6207 8.54883H46.2927V7.24878H49.9437V8.84882Z" fill="#1A1818"/>
<path d="M52.2097 8.91284H53.2917V11.1859H54.9347V12.4648H53.2917V14.7359H52.2097V12.4648H50.5547V11.1859H52.2097V8.91284Z" fill="#1A1818"/>
</g>
<defs>
<clipPath id="clip0">
<rect width="60.418" height="90.628" fill="white" transform="translate(0.255859)"/>
</clipPath>
</defs>
</svg>
