<svg width="61" height="91" viewBox="0 0 61 91" fill="none" xmlns="http://www.w3.org/2000/svg">
<g clip-path="url(#clip0)">
<path d="M60.513 0H0.09375V90.6283H60.5126V0H60.513Z" fill="white"/>
<path d="M59.6357 0.972656V89.6609H0.970947V0.972656H59.6357Z" fill="#1A1818"/>
<path d="M56.2606 4.12451H3.92334V18.8308H56.2606V4.12451Z" fill="white"/>
<path d="M56.267 22.0374H3.8999V76.1009H56.267V22.0374Z" fill="white"/>
<path d="M3.90967 86.462V79.2837H14.4232V80.9637H8.13394V81.9895H13.4568V83.6637H8.13394V84.7866H14.6668V86.4608L3.90967 86.462Z" fill="white"/>
<path d="M23.5993 81.3755C23.5482 81.2492 23.4653 81.1382 23.3586 81.0533C23.252 80.9684 23.1251 80.9126 22.9905 80.8913C22.635 80.7938 22.2672 80.7488 21.8987 80.7575C20.9701 80.7575 20.5523 80.9098 20.5523 81.1782C20.5523 82.2393 27.9654 81.5724 27.9654 84.1836C27.9654 85.8459 25.4729 86.6576 21.9319 86.6576C18.5306 86.6576 16.3125 85.5506 16.2224 84.2551H20.2679C20.3337 84.3966 20.4311 84.5211 20.5525 84.619C20.6739 84.717 20.8162 84.7858 20.9684 84.8202C21.3572 84.9443 21.7632 85.0056 22.1713 85.0015C23.2265 85.0015 23.9283 84.8143 23.9283 84.4747C23.9283 83.388 16.5094 84.1335 16.5094 81.3979C16.5094 79.8722 18.8723 79.1082 22.0985 79.1082C25.6749 79.1082 27.3057 80.1222 27.6162 81.3768L23.5993 81.3755Z" fill="white"/>
<path d="M34.292 82.3967H35.9531C37.2608 82.3967 37.963 82.2065 37.963 81.713C37.963 81.2081 37.2478 80.9641 36.2607 80.9641H34.292V82.3967ZM34.292 83.9619V86.4619H30.0686V79.2832H36.1572C40.4488 79.2832 41.865 79.9408 41.865 81.3356C41.865 82.1653 41.2057 82.8549 39.6999 83.0956C41.0593 83.3695 41.8848 83.5386 41.8848 84.9864C41.8848 85.9213 41.8301 86.2453 42.3308 86.2453V86.4615H38.048C37.8821 86.0651 37.8101 85.6357 37.8376 85.2069C37.8376 84.2644 37.5499 83.9615 35.5812 83.9615L34.292 83.9619Z" fill="white"/>
<path d="M48.6823 80.9641V82.1653H50.4423C51.2838 82.1653 51.8947 81.9478 51.8947 81.538C51.8947 80.9763 51.062 80.9641 50.1743 80.9641H48.6823ZM48.6823 83.4641V84.7861H50.5243C51.572 84.7861 52.3575 84.6645 52.3575 84.1298C52.3575 83.5024 51.3755 83.4629 50.0249 83.4629L48.6823 83.4641ZM44.4597 86.4619V79.2832H50.6219C53.5251 79.2832 55.8333 79.6732 55.8333 81.0949C55.8333 81.835 54.9699 82.374 54.1503 82.6517C55.5451 82.8541 56.294 83.5256 56.294 84.2959C56.294 85.8948 54.0969 86.4611 50.7431 86.4611L44.4597 86.4619Z" fill="white"/>
<path d="M32.0253 55.2451C31.1515 52.01 29.4167 50.1175 26.9449 49.4565C28.4827 47.6587 29.3566 44.8767 28.1797 40.5073C26.5262 34.4065 22.3289 31.4483 17.2269 32.8077L5.62322 35.8943L5.3855 35.9553L14.9953 71.5081L22.7568 69.4389C22.7568 69.4389 19.6083 57.7965 19.0572 55.7458L19.4358 55.6453C20.6219 55.3377 21.4882 55.3406 22.0684 55.6772C23.0963 56.2663 23.5713 58.0448 24.1145 60.1018L24.5483 61.7397C25.0532 63.7172 25.5896 65.7654 26.9263 67.5086L27.4472 68.1952L36.3249 65.8428L35.133 64.3172C34.533 63.5502 33.041 59.0057 32.0253 55.2451ZM19.3231 48.8919C19.3231 48.8919 18.3272 49.1582 17.3456 49.417C16.7654 47.275 15.4362 42.3485 14.8565 40.2027C15.8309 39.9502 16.834 39.6818 16.834 39.6818C17.7735 39.4352 19.3445 39.0149 20.4944 43.2716C20.7149 44.0975 21.715 48.2536 19.3231 48.8902V48.8919Z" fill="#1A1818"/>
<path d="M41.7496 26.901L31.2962 29.6779L30.0403 30.0099L39.6459 65.5678L47.5794 63.4641C47.5794 63.4641 44.4886 52.0362 43.9333 49.9977C45.2729 49.6367 47.3451 49.0936 47.3451 49.0936C53.5342 47.4417 55.9001 42.6444 53.9861 35.5877C51.5012 26.3847 45.9655 25.7864 41.7496 26.901ZM44.9834 42.6789C44.9834 42.6789 43.4566 43.087 42.1594 43.4312C41.5948 41.33 40.2366 36.3257 39.6745 34.2232C40.8256 33.9173 42.0816 33.5853 42.0816 33.5853C43.4486 33.2185 45.0108 33.2185 46.2503 37.7995C46.8427 39.979 46.2263 42.3511 44.9834 42.6802V42.6789Z" fill="#1A1818"/>
<path d="M6.41831 15.6571H5.37402V7.30786H7.30314C7.48332 7.31007 7.65918 7.36328 7.81035 7.46135C7.96152 7.55942 8.0818 7.69833 8.15725 7.86196C8.39521 8.37121 8.50292 8.93161 8.4707 9.49278C8.48404 9.95304 8.41273 10.4118 8.26033 10.8463C8.20821 11.0124 8.11552 11.1628 7.99063 11.284C7.86574 11.4052 7.7126 11.4934 7.54506 11.5405V11.5632C7.60144 11.5784 7.67886 11.6016 7.77942 11.6335C7.89671 11.674 8.00083 11.7455 8.08067 11.8405C8.19753 11.9824 8.28543 12.1458 8.33943 12.3214C8.42261 12.6083 8.45968 12.9065 8.44924 13.205C8.44924 13.3359 8.45219 13.5218 8.45387 13.7591C8.45556 13.9964 8.46145 14.2447 8.4707 14.5005C8.47996 14.7563 8.49342 14.989 8.50857 15.204C8.51542 15.3561 8.53527 15.5075 8.56789 15.6563H7.54506C7.47462 15.3956 7.43827 15.1269 7.43693 14.8568C7.43693 14.5783 7.43693 14.3057 7.43693 14.0364C7.43693 13.7898 7.43693 13.5538 7.43399 13.33C7.43419 13.1334 7.41016 12.9375 7.36246 12.7468C7.32758 12.5953 7.25108 12.4566 7.14157 12.3463C7.01666 12.2395 6.85491 12.1859 6.69095 12.1969H6.41999L6.41831 15.6571ZM6.41831 10.9145H6.88113C6.92977 10.9154 6.97803 10.9057 7.02251 10.886C7.067 10.8663 7.10663 10.8371 7.13863 10.8004C7.21214 10.7139 7.26803 10.6139 7.30314 10.5059C7.34614 10.3763 7.37575 10.2427 7.39149 10.1071C7.40538 9.96106 7.41421 9.82096 7.41421 9.69011C7.4354 9.39957 7.38634 9.10821 7.27116 8.84063C7.23649 8.76666 7.18139 8.70412 7.11236 8.66044C7.04333 8.61675 6.96324 8.59374 6.88155 8.59408H6.41873L6.41831 10.9145Z" fill="#1A1818"/>
<path d="M8.85913 15.6571L10.24 7.30786H11.615L12.9702 15.6571H11.8721L11.5948 13.8058H10.1714L9.88827 15.6571H8.85913ZM10.8703 8.91552H10.8551L10.3772 12.5238H11.376L10.8703 8.91552Z" fill="#1A1818"/>
<path d="M16.018 7.30785V8.6963H14.8576V15.6571H13.8133V8.6946H12.6516V7.30615L16.018 7.30785Z" fill="#1A1818"/>
<path d="M16.502 15.6571V7.30786H17.545V15.6571H16.502Z" fill="#1A1818"/>
<path d="M18.4277 15.6571V7.30786H19.836L21.1634 13.0901H21.1773V7.30786H22.1517V15.6571H20.7772L19.419 9.5521H19.4039V15.6571H18.4277Z" fill="#1A1818"/>
<path d="M25.3126 9.87312C25.3126 9.68126 25.3067 9.49447 25.2945 9.32028C25.2864 9.16304 25.2581 9.00748 25.2104 8.85744C25.1728 8.73775 25.1082 8.62835 25.0214 8.5377C24.9307 8.45577 24.8116 8.41257 24.6895 8.41736C24.6093 8.41778 24.531 8.44199 24.4645 8.48693C24.3981 8.53187 24.3465 8.59551 24.3163 8.6698C24.215 8.88574 24.1492 9.11661 24.1215 9.35351C24.0761 9.6809 24.0522 10.0109 24.0499 10.3414C24.0407 10.7159 24.0377 11.1026 24.0377 11.5048C24.0377 12.1578 24.0499 12.6879 24.0743 13.0881C24.0863 13.4014 24.125 13.7132 24.1901 14.02C24.2184 14.1878 24.2982 14.3427 24.4185 14.463C24.5232 14.5428 24.6523 14.5837 24.7837 14.5787C24.8742 14.5796 24.9642 14.5654 25.0501 14.5367C25.137 14.5044 25.2213 14.4657 25.3025 14.421V12.5697H24.74V11.286H26.3493V15.5178C26.2807 15.5406 26.1865 15.5679 26.0691 15.5986C25.9517 15.6293 25.8255 15.6596 25.6929 15.6916C25.5604 15.7236 25.4249 15.7463 25.2911 15.7678C25.174 15.7841 25.056 15.7932 24.9377 15.7951C24.5741 15.8124 24.2126 15.7309 23.8917 15.5591C23.6143 15.3785 23.4066 15.1089 23.3027 14.7946C23.1505 14.3565 23.0634 13.8985 23.0439 13.4351C23.0019 12.881 22.9846 12.2078 22.9846 11.4131C22.9846 10.888 22.9972 10.3713 23.0225 9.86303C23.039 9.40343 23.1084 8.94729 23.2295 8.50362C23.3206 8.14287 23.5012 7.8109 23.7546 7.53843C23.8861 7.41041 24.0428 7.31124 24.2148 7.24727C24.3868 7.1833 24.5703 7.15593 24.7534 7.16692C24.9943 7.16362 25.2316 7.22571 25.4401 7.34657C25.6533 7.47498 25.8316 7.65386 25.9593 7.86745C26.1116 8.12865 26.2167 8.41463 26.2698 8.7123C26.3407 9.09463 26.3672 9.48388 26.3489 9.8723L25.3126 9.87312Z" fill="#1A1818"/>
<path d="M28.7942 7.30801H30.6762C30.893 7.30211 31.1064 7.36212 31.2884 7.4801C31.4653 7.61081 31.6058 7.78463 31.6965 7.985C31.8141 8.23597 31.8927 8.50339 31.9296 8.77808C31.9811 9.11824 32.006 9.46191 32.004 9.80595C32.0024 10.0691 31.9861 10.3319 31.9552 10.5932C31.9297 10.867 31.8667 11.1359 31.768 11.3926C31.6777 11.6285 31.5336 11.8401 31.3473 12.0107C31.1427 12.1829 30.8806 12.2715 30.6135 12.2589H29.8385V15.6585H28.7942V7.30801ZM29.8385 10.9739H30.4187C30.4592 10.9734 30.4992 10.9645 30.5361 10.9477C30.573 10.931 30.6061 10.9069 30.6333 10.8768C30.7032 10.802 30.7594 10.7153 30.799 10.6209C30.8481 10.5061 30.8843 10.3861 30.9072 10.2633C30.9316 10.1277 30.9438 9.99009 30.9438 9.85225C30.9438 9.68185 30.9345 9.52028 30.9211 9.36502C30.9077 9.22738 30.8776 9.09188 30.8314 8.96154C30.7941 8.85772 30.7318 8.76465 30.6501 8.69056C30.5692 8.62305 30.4659 8.58839 30.3606 8.59338H29.8385V10.9739Z" fill="#1A1818"/>
<path d="M32.6299 15.6571V7.30786H35.3517V8.5928H33.6729V10.6498H35.2212V11.9335H33.6729V14.3738H35.4102V15.6588L32.6299 15.6571Z" fill="#1A1818"/>
<path d="M36.0918 15.6571V7.30786H37.5017L38.8292 13.0901H38.8443V7.30786H39.8158V15.6571H38.4425L37.0814 9.5521H37.0662V15.6571H36.0918Z" fill="#1A1818"/>
<path d="M40.7156 7.30792H42.4558C42.7576 7.29408 43.0539 7.39271 43.2872 7.58476C43.5208 7.80597 43.691 8.08562 43.7803 8.39471C43.911 8.81707 43.9908 9.25351 44.018 9.6948C44.0601 10.2077 44.0803 10.7887 44.0803 11.4367V12.194C44.0803 12.4835 44.0681 12.7864 44.0466 13.1016C44.0238 13.4147 43.9805 13.726 43.917 14.0335C43.8633 14.3174 43.7696 14.5923 43.6385 14.8498C43.5225 15.0778 43.3571 15.277 43.1542 15.4329C42.9393 15.588 42.679 15.6674 42.4141 15.6584H40.7156V7.30792ZM41.7586 14.3722H42.2635C42.3346 14.3746 42.4055 14.3622 42.4715 14.3358C42.5376 14.3094 42.5974 14.2695 42.6472 14.2186C42.7657 14.0737 42.8448 13.9007 42.8769 13.7163C42.9409 13.4207 42.979 13.1202 42.991 12.818C43.0123 12.4533 43.0229 12.0083 43.0229 11.483C43.0229 11.0963 43.0183 10.7307 43.0124 10.3836C43.0094 10.0753 42.9824 9.76782 42.9316 9.4638C42.901 9.24025 42.8275 9.02471 42.7154 8.82891C42.6735 8.7549 42.6121 8.69379 42.5379 8.65218C42.4638 8.61057 42.3796 8.59004 42.2946 8.59286H41.7586V14.3722Z" fill="#1A1818"/>
<path d="M44.918 15.6571V7.30786H45.961V15.6571H44.918Z" fill="#1A1818"/>
<path d="M46.8467 15.6571V7.30786H48.2549L49.5811 13.0901H49.5946V7.30786H50.5707V15.6571H49.1944L47.8333 9.5521H47.8182V15.6571H46.8467Z" fill="#1A1818"/>
<path d="M53.7302 9.87298C53.7302 9.68112 53.7243 9.49432 53.7121 9.32013C53.7032 9.16299 53.6749 9.00752 53.6279 8.8573C53.59 8.73713 53.5243 8.62761 53.4361 8.53756C53.3915 8.49652 53.3392 8.46474 53.2822 8.44408C53.2252 8.42342 53.1647 8.4143 53.1041 8.41722C53.024 8.41785 52.9458 8.44216 52.8794 8.48707C52.813 8.53198 52.7613 8.59549 52.7309 8.66966C52.6294 8.88529 52.5645 9.11637 52.5391 9.35336C52.4933 9.68076 52.4685 10.0107 52.4646 10.3413C52.46 10.7157 52.4553 11.1024 52.4553 11.5046C52.4553 12.1576 52.4658 12.6878 52.4903 13.0879C52.5019 13.4014 52.5412 13.7132 52.6076 14.0198C52.6355 14.1875 52.7147 14.3423 52.8344 14.4629C52.9397 14.5427 53.0693 14.5836 53.2013 14.5786C53.2918 14.5792 53.3818 14.565 53.4676 14.5365C53.5545 14.5041 53.6388 14.4654 53.7201 14.4208V12.5696H53.1521V11.2859H54.7627V15.5177C54.6928 15.5404 54.5999 15.5678 54.4842 15.5985C54.3685 15.6292 54.2389 15.6595 54.1055 15.6915C53.9721 15.7234 53.8392 15.7462 53.7049 15.7676C53.5884 15.784 53.4709 15.7931 53.3532 15.795C52.9891 15.8121 52.6271 15.7306 52.3055 15.5589C52.0286 15.3778 51.821 15.1084 51.7165 14.7944C51.5651 14.3562 51.4779 13.8983 51.4577 13.435C51.4199 12.8809 51.4014 12.2077 51.4014 11.4129C51.4014 10.8878 51.4119 10.3716 51.438 9.86289C51.4552 9.40336 51.5247 8.94731 51.645 8.50348C51.7363 8.14306 51.9163 7.81124 52.1688 7.53829C52.3962 7.33697 52.6801 7.21055 52.9819 7.17622C53.2837 7.1419 53.5887 7.20133 53.8556 7.34643C54.0688 7.47477 54.2471 7.65366 54.3748 7.8673C54.5271 8.1285 54.6322 8.41449 54.6853 8.71216C54.7554 9.09459 54.7819 9.48375 54.7644 9.87216L53.7302 9.87298Z" fill="#1A1818"/>
</g>
<defs>
<clipPath id="clip0">
<rect width="60.4197" height="90.63" fill="white" transform="translate(0.09375)"/>
</clipPath>
</defs>
</svg>
