<svg width="62" height="91" viewBox="0 0 62 91" fill="none" xmlns="http://www.w3.org/2000/svg">
<g clip-path="url(#clip0)">
<path d="M61.0928 0H0.673828V90.628H61.0928V0Z" fill="white"/>
<path d="M60.2138 0.971924V89.6539H1.55176V0.971924H60.2138Z" fill="#1A1818"/>
<path d="M56.8397 4.12402H4.50366V18.828H56.8397V4.12402Z" fill="white"/>
<path d="M56.8457 22.0369H4.47974V76.0989H56.8457V22.0369Z" fill="white"/>
<path d="M4.49072 86.459V79.281H15.0037V80.961H8.71373V81.987H14.0367V83.661H8.71373V84.785H15.2477V86.459H4.49072Z" fill="white"/>
<path d="M24.1807 81.3719C24.1295 81.2454 24.0466 81.1343 23.9399 81.0491C23.8332 80.964 23.7064 80.9078 23.5717 80.8859C23.2159 80.7898 22.8481 80.7454 22.4797 80.754C21.5507 80.754 21.1357 80.905 21.1357 81.173C21.1357 82.234 28.5497 81.5729 28.5497 84.1799C28.5497 85.8409 26.0557 86.6539 22.5157 86.6539C19.1157 86.6539 16.8947 85.547 16.8047 84.254H20.8487C20.9151 84.395 21.0126 84.5192 21.1338 84.6172C21.255 84.7152 21.3968 84.7845 21.5487 84.8199C21.9365 84.9438 22.3416 85.0049 22.7487 85.001C23.8037 85.001 24.5067 84.8139 24.5067 84.4739C24.5067 83.3859 17.0877 84.1319 17.0877 81.3959C17.0877 79.8719 19.4517 79.106 22.6767 79.106C26.2527 79.106 27.8847 80.121 28.1927 81.376L24.1807 81.3719Z" fill="white"/>
<path d="M34.8717 82.395H36.5327C37.8407 82.395 38.5427 82.205 38.5427 81.71C38.5427 81.215 37.8267 80.961 36.8427 80.961H34.8737L34.8717 82.395ZM34.8717 83.959V86.459H30.6487V79.281H36.7367C41.0267 79.281 42.4447 79.937 42.4447 81.332C42.4447 82.162 41.7837 82.851 40.2797 83.093C41.6397 83.366 42.4647 83.536 42.4647 84.984C42.4647 85.917 42.4097 86.242 42.9107 86.242V86.46H38.6277C38.4612 86.0633 38.3887 85.6334 38.4157 85.204C38.4157 84.262 38.1297 83.959 36.1607 83.959H34.8717Z" fill="white"/>
<path d="M49.2628 80.9609V82.1609H51.0228C51.8648 82.1609 52.4748 81.945 52.4748 81.534C52.4748 80.972 51.6418 80.96 50.7548 80.96L49.2628 80.9609ZM49.2628 83.4609V84.784H51.1048C52.1518 84.784 52.9378 84.662 52.9378 84.126C52.9378 83.499 51.9558 83.4609 50.6058 83.4609H49.2628ZM45.0408 86.4609V79.283H51.2018C54.1018 79.283 56.4128 79.673 56.4128 81.093C56.4128 81.833 55.5498 82.372 54.7288 82.652C56.1238 82.852 56.8728 83.526 56.8728 84.296C56.8728 85.896 54.6728 86.4609 51.3218 86.4609H45.0408Z" fill="white"/>
<path d="M8.84985 35.1569L49.3618 25.0569L52.4778 35.8569L39.4608 39.1008L48.1898 69.4368L33.7058 73.0499L24.9708 42.7139L11.9608 45.9609L8.84985 35.1569Z" fill="#1A1818"/>
<path d="M44.5508 7.30884H47.9908L51.9818 11.8528L51.8438 9.95282V7.30884H55.3618V15.6288H51.9258L47.9258 11.0968L47.9928 13.0608L48.0668 15.6288H44.5488L44.5508 7.30884Z" fill="#1A1818"/>
<path d="M32.1587 7.30884H41.2817V9.24182H35.8237V10.4418H40.4417V12.3838H35.8237V13.6838H41.4987V15.6288H32.1587V7.30884Z" fill="#1A1818"/>
<path d="M19.3347 7.30884H28.4597V9.24182H23.0017V10.4418H27.6167V12.3838H23.0007V13.6838H28.6797V15.6288H19.3337L19.3347 7.30884Z" fill="#1A1818"/>
<path d="M5.95778 7.30884H16.2178V9.49182H12.9258V15.6288H9.25078V9.49182H5.95679L5.95778 7.30884Z" fill="#1A1818"/>
</g>
<defs>
<clipPath id="clip0">
<rect width="60.42" height="90.628" fill="white" transform="translate(0.673828)"/>
</clipPath>
</defs>
</svg>
